<?xml version="1.0" standalone="no"?>
<!DOCTYPE svg PUBLIC "-//W3C//DTD SVG 20010904//EN"
 "http://www.w3.org/TR/2001/REC-SVG-20010904/DTD/svg10.dtd">
<svg version="1.0" xmlns="http://www.w3.org/2000/svg"
 width="512.000000pt" height="512.000000pt" viewBox="0 0 512.000000 512.000000"
 preserveAspectRatio="xMidYMid meet">
<metadata>
Created by potrace 1.11, written by Peter Selinger 2001-2013
</metadata>
<g transform="translate(0.000000,512.000000) scale(0.100000,-0.100000)"
fill="#000000" stroke="none">
<path d="M2516 4228 c-3 -29 -11 -123 -17 -208 -6 -85 -13 -158 -15 -162 -2
-3 -6 -26 -9 -51 -6 -67 -74 -334 -100 -399 -13 -31 -20 -59 -17 -62 3 -3 1
-6 -5 -6 -6 0 -14 -11 -17 -25 -7 -25 -12 -39 -100 -233 -25 -56 -46 -106 -46
-111 0 -5 -3 -11 -7 -13 -5 -1 -33 -55 -63 -118 -30 -63 -57 -117 -60 -120 -3
-3 -14 -24 -24 -47 -11 -24 -24 -43 -29 -43 -6 0 -8 -3 -4 -6 7 -7 -34 -90
-80 -163 -95 -150 -215 -447 -262 -651 -61 -262 -54 -486 20 -686 114 -307
395 -540 734 -610 98 -21 312 -26 390 -10 22 4 47 9 55 11 8 1 22 5 30 8 41
15 136 41 143 39 4 -1 7 3 7 8 0 6 8 10 18 10 10 0 23 5 30 12 6 6 18 13 26
14 20 3 156 94 156 105 0 5 6 9 14 9 29 0 235 237 228 262 -1 5 2 8 7 8 15 0
91 158 122 254 16 49 36 130 45 180 19 101 26 373 14 476 -5 36 -11 91 -15
123 -3 32 -8 64 -10 70 -2 7 -7 28 -10 47 -3 19 -14 73 -25 120 -25 104 -28
114 -30 118 -2 1 -3 5 -4 10 -53 223 -207 550 -411 872 -81 127 -125 202 -125
210 0 6 -4 10 -8 10 -4 0 -13 12 -20 28 -11 27 -81 141 -155 255 -20 31 -37
59 -37 61 0 8 -203 311 -212 317 -5 3 -8 8 -7 10 4 4 -58 97 -77 117 -23 23
-33 12 -38 -40z"/>
</g>
</svg>
