<svg xmlns="http://www.w3.org/2000/svg" viewBox="0 0 27.305 37.555">
  <defs>
    <style>
      .cls-1 {
        fill: #eee;
      }

      .cls-2 {
        fill: #53bcf4;
      }
    </style>
  </defs>
  <g id="Group_20622" data-name="Group 20622" transform="translate(-1482 -56.782)">
    <path id="Path_9642" data-name="Path 9642" class="cls-1" d="M23.29,33.552h0A13.65,13.65,0,0,0,24.844,16.1L13.638,0,2.433,16.106A13.639,13.639,0,0,0,3.986,33.552h0A13.636,13.636,0,0,0,23.29,33.552Z" transform="translate(1482.014 56.782)"/>
    <path id="Path_9643" data-name="Path 9643" class="cls-2" d="M13.857,19.971h0a8.125,8.125,0,0,0,.925-10.389L8.112,0,1.442,9.587a8.118,8.118,0,0,0,.925,10.384h0A8.116,8.116,0,0,0,13.857,19.971Z" transform="translate(1487.192 65.677)"/>
  </g>
</svg>
