<svg xmlns="http://www.w3.org/2000/svg" width="22.607" height="19.835" viewBox="0 0 22.607 19.835">
  <g id="quote_after" transform="translate(0)">
    <path id="Path_1" data-name="Path 1" d="M15.54,17.472c0,7.236-6.681,11.645-7.719,12.2a4.691,4.691,0,0,1-1.924.684c-.415,0-.69-.2-.69-.55a1.633,1.633,0,0,1,.69-1.032c.959-.69,3.652-4.274,3.652-7.651a2.316,2.316,0,0,0-1.032-2C7.894,18.779,5,18.156,5,14.51a4.028,4.028,0,0,1,4.134-3.994C12.3,10.516,15.54,12.922,15.54,17.472Z" transform="translate(7.067 -10.516)" fill="#797979"/>
    <path id="Path_2" data-name="Path 2" d="M63.56,17.472c0,7.236-6.687,11.645-7.719,12.2a4.712,4.712,0,0,1-1.93.684c-.415,0-.684-.2-.684-.55a1.622,1.622,0,0,1,.684-1.032c.965-.69,3.651-4.274,3.651-7.651a2.316,2.316,0,0,0-1.032-2c-.623-.342-3.517-.965-3.517-4.611a4.033,4.033,0,0,1,4.14-3.994C60.318,10.516,63.56,12.922,63.56,17.472Z" transform="translate(-53.014 -10.516)" fill="#797979"/>
  </g>
</svg>
