<svg xmlns="http://www.w3.org/2000/svg" width="15.833" height="19" viewBox="0 0 15.833 19">
  <g id="noun_Sort_1058872" transform="translate(-4)">
    <g id="Group_20635" data-name="Group 20635" transform="translate(4)">
      <g id="Group_20634" data-name="Group 20634" transform="translate(0)">
        <g id="Group_20633" data-name="Group 20633">
          <path id="Path_12746" data-name="Path 12746" d="M16.01,16.293V.794a.792.792,0,1,1,1.583,0V16.3l.894-.894a.792.792,0,0,1,1.12,1.12l-2.249,2.249a.779.779,0,0,1-.552.229L16.8,19a.779.779,0,0,1-.551-.227L14,16.521a.792.792,0,0,1,1.12-1.12ZM7.824,2.707v15.5a.792.792,0,1,1-1.583,0V2.7L5.346,3.6a.792.792,0,0,1-1.12-1.12L6.476.229A.779.779,0,0,1,7.028,0l.006,0a.779.779,0,0,1,.551.227L9.835,2.479A.792.792,0,0,1,8.715,3.6Z" transform="translate(-4)" fill="#3f7fc4" fill-rule="evenodd"/>
        </g>
      </g>
    </g>
  </g>
</svg>
