<svg id="international_transfer_1_" xmlns="http://www.w3.org/2000/svg" viewBox="0 0 109.027 81.372">
  <defs>
    <style>
      .cls-1 {
        fill: #3f7fc4;
      }
    </style>
  </defs>
  <path id="Path_12716" data-name="Path 12716" class="cls-1" d="M112.555,87.065H63.866A5.83,5.83,0,0,1,58,81.2V54.466A5.83,5.83,0,0,1,63.866,48.6h48.689a5.83,5.83,0,0,1,5.866,5.866V81.2A5.883,5.883,0,0,1,112.555,87.065ZM63.866,51.952a2.469,2.469,0,0,0-2.514,2.514V81.2a2.469,2.469,0,0,0,2.514,2.514h48.689a2.469,2.469,0,0,0,2.514-2.514V54.466a2.469,2.469,0,0,0-2.514-2.514Z" transform="translate(-9.395 -7.872)"/>
  <path id="Path_12717" data-name="Path 12717" class="cls-1" d="M44.75,75.757a14.183,14.183,0,0,1-2.43,1.425v-17.6c.67,0,1.425.084,2.1.084V56.315a17.517,17.517,0,0,0-2.1-.084V42.32h3.017a9.812,9.812,0,0,1,2.514-3.352H42.32V25.141a52.915,52.915,0,0,0,14.246-2.43,52.526,52.526,0,0,1,2.765,13.827h3.352a58.052,58.052,0,0,0-2.933-15.084,24.73,24.73,0,0,0,8.38-6.034,37.4,37.4,0,0,1,9.721,21.118H81.2A41.163,41.163,0,0,0,69.221,11.732c-.084-.084-.168-.251-.335-.335a40.585,40.585,0,0,0-56.4,0,.654.654,0,0,0-.335.335,40.57,40.57,0,0,0,0,57.907c.084.168.251.251.335.335a40.513,40.513,0,0,0,28.158,11.4h0a47.854,47.854,0,0,0,7.039-.587A10.549,10.549,0,0,1,44.75,75.757ZM65.7,12.989a19.108,19.108,0,0,1-7.123,5.28A36.908,36.908,0,0,0,48.522,4.19,37.047,37.047,0,0,1,65.7,12.989ZM42.32,4.19c4.861,2.43,9.721,7.794,12.989,15.336A47.018,47.018,0,0,1,42.32,21.789Zm-9.386,0A37.336,37.336,0,0,0,22.878,18.269a20.051,20.051,0,0,1-7.123-5.28A35.881,35.881,0,0,1,32.934,4.19ZM13.325,15.336A22,22,0,0,0,21.7,21.37a58.846,58.846,0,0,0-3.1,17.6H3.436A36.608,36.608,0,0,1,13.325,15.336Zm0,50.7A36.644,36.644,0,0,1,3.436,42.32H18.6a56.321,56.321,0,0,0,3.1,17.6A22.424,22.424,0,0,0,13.325,66.036Zm2.346,2.346a18.254,18.254,0,0,1,7.123-5.28A36.908,36.908,0,0,0,32.85,77.182,36.65,36.65,0,0,1,15.671,68.383Zm23.3,8.8c-4.861-2.43-9.721-7.794-12.989-15.336a47.559,47.559,0,0,1,12.989-2.263Zm0-20.951a51.777,51.777,0,0,0-14.163,2.43A53.64,53.64,0,0,1,21.956,42.32h17.1V56.231Zm0-17.263H21.956a56.315,56.315,0,0,1,2.849-16.341,46.66,46.66,0,0,0,14.246,2.43V38.968Zm0-17.179a47.559,47.559,0,0,1-12.989-2.263C29.247,11.9,34.108,6.62,38.968,4.19Z"/>
  <path id="Path_12718" data-name="Path 12718" class="cls-1" d="M72.753,85.852H67.976a1.676,1.676,0,1,1,0-3.352h4.777a1.676,1.676,0,1,1,0,3.352Z" transform="translate(-10.739 -13.363)"/>
  <path id="Path_12719" data-name="Path 12719" class="cls-1" d="M82.177,85.852h-3.1a1.676,1.676,0,1,1,0-3.352h3.1a1.676,1.676,0,0,1,0,3.352Z" transform="translate(-12.537 -13.363)"/>
  <path id="Path_12720" data-name="Path 12720" class="cls-1" d="M112.555,87.065H63.866A5.83,5.83,0,0,1,58,81.2V54.466A5.83,5.83,0,0,1,63.866,48.6h48.689a5.83,5.83,0,0,1,5.866,5.866V81.2A5.883,5.883,0,0,1,112.555,87.065ZM63.866,51.952a2.469,2.469,0,0,0-2.514,2.514V81.2a2.469,2.469,0,0,0,2.514,2.514h48.689a2.469,2.469,0,0,0,2.514-2.514V54.466a2.469,2.469,0,0,0-2.514-2.514Z" transform="translate(-9.395 -7.872)"/>
  <rect id="Rectangle_1787" data-name="Rectangle 1787" class="cls-1" width="53.717" height="3.352" transform="translate(51.957 48.689)"/>
  <rect id="Rectangle_1788" data-name="Rectangle 1788" class="cls-1" width="53.717" height="3.352" transform="translate(51.957 56.483)"/>
</svg>
