<svg xmlns="http://www.w3.org/2000/svg" viewBox="0 0 21.797 17.988">
  <defs>
    <style>
      .cls-1 {
        fill: #bfbfbf;
      }
    </style>
  </defs>
  <g id="Group_20321" data-name="Group 20321" transform="translate(-1742 -48)">
    <path id="Path_12041" data-name="Path 12041" class="cls-1" d="M.862.1,23.005,2.779A1.192,1.192,0,0,1,23.971,3.8a.679.679,0,0,1-.758.817L1.07,1.947A1.192,1.192,0,0,1,.1.922.679.679,0,0,1,.862.1Z" transform="matrix(0.799, 0.602, -0.602, 0.799, 1744.706, 47.863)"/>
    <path id="Path_12042" data-name="Path 12042" class="cls-1" d="M.862,4.622,23.005,1.947a.679.679,0,0,1,.758.817A1.192,1.192,0,0,1,22.8,3.79L.654,6.465A.679.679,0,0,1-.1,5.648,1.192,1.192,0,0,1,.862,4.622Z" transform="translate(1764.876 53.234) rotate(143)"/>
  </g>
</svg>
