<svg id="Group_20632" data-name="Group 20632" xmlns="http://www.w3.org/2000/svg" viewBox="0 0 46.102 46.092">
  <defs>
    <style>
      .cls-1 {
        fill: #3e7ec3;
      }
    </style>
  </defs>
  <g id="Group_20207" data-name="Group 20207" transform="translate(0)">
    <path id="Path_11663" data-name="Path 11663" class="cls-1" d="M23.051,46.091A23.046,23.046,0,1,1,46.1,23.051,23.072,23.072,0,0,1,23.051,46.091Zm0-45.158a22.112,22.112,0,1,0,22.1,22.117A22.143,22.143,0,0,0,23.051.933Z" transform="translate(0 0)"/>
  </g>
  <g id="Group_20210" data-name="Group 20210" transform="translate(5.234 7.617)">
    <g id="Group_20209" data-name="Group 20209">
      <g id="Group_20208" data-name="Group 20208">
        <path id="Path_11664" data-name="Path 11664" class="cls-1" d="M56.457,90.075a.707.707,0,0,0-.446-.2c-.609-.091-.781-.426-.751-.578s.162-.02-.68-.112a4.167,4.167,0,0,1-.984-.243,1.15,1.15,0,0,1-.446-.4,2.206,2.206,0,0,1-.172-.6l-.041-.335a2.774,2.774,0,0,0-.183-.69l-.284-.639-.142-.274a1.425,1.425,0,0,0-.345-.416.951.951,0,0,1-.294-.487l-.01-.02a1.52,1.52,0,0,1-.071-.7,5.87,5.87,0,0,1,.893-1.522c.477-.659.751-1.035.923-1.248a.862.862,0,0,0,.213-.528,4.4,4.4,0,0,1-.01-.517,1.242,1.242,0,0,1,.03-.213c.213-.264.426-.528.649-.791a.724.724,0,0,1,.548-.213c.183.03.254-.01.243-.112-.01-.051.02-.1.132-.112a4.42,4.42,0,0,0,.964-.517A9.36,9.36,0,0,0,57.817,77.3a.68.68,0,0,1,.588-.193l.264.061a1.755,1.755,0,0,0,.649.01c.162-.041.4-.142.5-.061a.528.528,0,0,1,.142.172c.213.335.406.1.436-.335.02-.172.041-.335.051-.467.02-.2.132-.528.315-.6.213-.091.548-.03.984.639.487.741.67.568.741.315a1.063,1.063,0,0,1,.365-.528,2.321,2.321,0,0,0,.315-.274l.243-.213c.132-.122.071-.233.071-.375a.329.329,0,0,1,.132-.223.487.487,0,0,1,.294-.152,1.377,1.377,0,0,1,.649.193,1.156,1.156,0,0,1,.264.213,1.216,1.216,0,0,0,.335.254c.172.1.426.193.538.264s.416.183.416.386a.514.514,0,0,1-.152.315c-.365.446-.325.162-.294.477a.606.606,0,0,1,0,.193.263.263,0,0,1-.2.172.757.757,0,0,1-.112.01l-.243.03a.969.969,0,0,0-.5.284c-.325.335-.771.9-.335.984a4.69,4.69,0,0,0,.517.071c.2.02.375.081.386.172a.516.516,0,0,0,.1.264c.041.051.172.051.284.071a.2.2,0,0,1,.152.132c.03.091.051.193.081.294a2.738,2.738,0,0,0,.091.5.646.646,0,0,0,.142.162c.264.223.446.558.081.751-.152.071-.315.152-.446.223-.183.091-.4.2-.487.264s-.162.1-.162.1-.852.446-.71,0c.061-.193.01-.315-.183-.315l-.406.01a4.557,4.557,0,0,0-3.7,1.725c-.122.162-.284.446-.386.609a3.448,3.448,0,0,1-.923.944.754.754,0,0,0-.335.528l-.02.345-.061.588s-.051.528-.254.284c-.132-.152-.132-.487-.183-.68a.368.368,0,0,0-.517-.284,7.29,7.29,0,0,1-1.025.2,1.8,1.8,0,0,0-.69.193,1.833,1.833,0,0,0-.71,2.019c.03.254-.081.741.406.659.193-.041.487-.213.68-.243s.822-.142.771.223a4.872,4.872,0,0,0,.365,1.755c.03.213.791.294.842.243s-.122.842-.386.6c-.152-.152-.477-.426-.71-.619A5.415,5.415,0,0,1,56.457,90.075Zm10.034,5.489a4.248,4.248,0,0,1-.274.528,1.1,1.1,0,0,0-.081.588l.051.335a5.606,5.606,0,0,1,.061.69,3.6,3.6,0,0,1-.041.528,1.18,1.18,0,0,1-.213.375.639.639,0,0,1-.355.2.61.61,0,0,0-.375.3,1.051,1.051,0,0,0-.172.548c.01.142.01.264.01.264l.01.223a.707.707,0,0,1-.1.386.5.5,0,0,0-.091.294.819.819,0,0,0,.03.142l.02.142a.492.492,0,0,1-.1.294,1.8,1.8,0,0,0-.193.335.936.936,0,0,0-.051.365c.01.1-.122.254-.294.345a.736.736,0,0,0-.355.5,2.772,2.772,0,0,0,.01.649,1.44,1.44,0,0,0,.254.568,1.469,1.469,0,0,1,.243.548,1.09,1.09,0,0,0,.2.467,2.007,2.007,0,0,0,.5.325l.03.01c.183.081.274.213.2.3a.625.625,0,0,1-.487.122l-.071-.01a1.262,1.262,0,0,1-.639-.284l-.852-.761a3.481,3.481,0,0,1-.487-.538,12.578,12.578,0,0,1-2-5.479,2.868,2.868,0,0,0-.568-.741,3.065,3.065,0,0,0-.568-.446l-.122-.081a2.656,2.656,0,0,1-.609-.375,2.47,2.47,0,0,1-.355-.629,2.51,2.51,0,0,0-.386-.6c-.051-.061-.1-.112-.152-.172-.132-.152-.315-.386-.406-.517s-.162-.243-.162-.243-.294-.386.3-1.9a2.367,2.367,0,0,0,.122-1.2c-.041-.193-.03-.4.081-.467a1.724,1.724,0,0,0,.386-.446c.183-.294.487-.639.8-.3a.758.758,0,0,0,.558.294,6.476,6.476,0,0,0,.67-.152,1,1,0,0,1,.609.162c.142.112.355.284.467.386a.755.755,0,0,1,.213.3c.01.061.172.1.375.081l.091-.01a.688.688,0,0,1,.477.091c.061.071.142.132.183.122a.258.258,0,0,1,.162.132,2.375,2.375,0,0,1,.152.274.819.819,0,0,1,.061.132l.162.284a1.006,1.006,0,0,0,.507.4l.365.112a5.87,5.87,0,0,0,.7.172,3.33,3.33,0,0,1,.68.223l.5.254a.9.9,0,0,1,.416.457,2.048,2.048,0,0,1,.071.528A3.034,3.034,0,0,1,66.491,95.564Zm18.922,4.7c-.294.426-.852,1.258-1.441,2.11-.649.964-.974.649-1.217.274a.813.813,0,0,0-.548-.365c-.436-.03-.659.183-1.217.69a2.4,2.4,0,0,1-.6.406c-.365.142-.426-.091-.416-.3s.051-.517.091-.72a1.647,1.647,0,0,1,.2-.507,3.251,3.251,0,0,0,.375-.619,4.57,4.57,0,0,0,.233-1,1.9,1.9,0,0,1,.213-1.329c.091-.172.284-.436.386-.609l.426-.68.355-.467.091-.122a1.436,1.436,0,0,1,.4-.233c.162-.081.345-.335.517-.436a1.886,1.886,0,0,1,.944-.142,1.358,1.358,0,0,1,.69.193.569.569,0,0,1,.193.4,2.109,2.109,0,0,1-.061.71,1.013,1.013,0,0,0,.071.893c.1.172.325.416.426.588a1.151,1.151,0,0,1,.172.619A1.653,1.653,0,0,1,85.413,100.262Zm1.542-12.54a.761.761,0,0,1,.152.6l-.051.183a1.861,1.861,0,0,0-.061.71l.02.152a.577.577,0,0,1-.132.487.229.229,0,0,1-.315-.051,1.254,1.254,0,0,0-.406-.3c-.142-.071-.254-.051-.243.051s-.041.183-.122.183-.213-.122-.284-.274a2.074,2.074,0,0,1-.172-.467,3.651,3.651,0,0,0-.132-.538c-.041-.122-.091-.284-.152-.507-.061-.193-.365-.2-.528-.335-.315-.254-.487-.162-.578-.01a3.246,3.246,0,0,0-.193.7l-.091.4c-.051.193-.142.507-.193.7a3.964,3.964,0,0,0-.061,1.116c.03.294,0,.446-.061.517-.122.162-.406-.183-.517-.345l-.355-.558-.446-.761-.223-.406a5.686,5.686,0,0,0-.386-.619l-.162-.233a2.357,2.357,0,0,0-.507-.5l-.325-.223A2.687,2.687,0,0,1,79.9,86.9a17.988,17.988,0,0,0-1.238-1.42.734.734,0,0,0-.964-.213,2.067,2.067,0,0,1-.446.264,1,1,0,0,1-.436-.051,1.372,1.372,0,0,0-.6-.152c-.254.02-.254.112-.172.213a3.58,3.58,0,0,0,.558.467l.4.315s1.167.883,2.039,1.42c.172.1.477.223.649.325a.569.569,0,0,1,.243.2c.1.172-.081.436-.112.558a1.276,1.276,0,0,1-.315.487c-.132.142-.325.335-.558.548a.3.3,0,0,0,.03.467c.619.487.659.761.649,1.055a2.041,2.041,0,0,1-.213.68.389.389,0,0,0,.041.477c.132.152.264.426.162.6a.34.34,0,0,1-.436.162,1.082,1.082,0,0,0-.254-.1.525.525,0,0,0-.477.254,2.114,2.114,0,0,0-.426,1.217c.01.2.1.517.112.71.01.233.02.568.02.944a.964.964,0,0,1-.274.6,1.139,1.139,0,0,0-.284.406c-.071.183-.02.507-.071.7a11.669,11.669,0,0,1-.72,1.989,1.111,1.111,0,0,1-1.765.538,1.071,1.071,0,0,1-.406-.558c-.061-.213-.152-.548-.274-1.086a6.055,6.055,0,0,0-.223-.69A4.154,4.154,0,0,1,73.8,96.65c0-.2.051-.528.071-.72l.091-1a1.157,1.157,0,0,0-.193-.649,1.3,1.3,0,0,1-.254-.609c-.01-.172-.03-.345-.051-.487a1.083,1.083,0,0,0-.325-.619,1.793,1.793,0,0,0-1.5-.274,6.157,6.157,0,0,0-.68.254.8.8,0,0,1-1.075-.386l-.142-.3a1.384,1.384,0,0,0-.345-.457,1.735,1.735,0,0,1-.375-.477c-.254-.487-.426-.791-.528-.984-.091-.172-.243-.457-.345-.629-.071-.132-.172-.315-.3-.558a3.864,3.864,0,0,1-.274-.67c-.568-2.09.386-3.064.913-3.429a2.363,2.363,0,0,1,.67-.264l.223-.061a2.106,2.106,0,0,1,.568-.071.684.684,0,0,1,.386.2.971.971,0,0,0,.325.243c.091.03.264.081.386.112a1.007,1.007,0,0,0,.457-.03,3.731,3.731,0,0,1,.6-.112,4.649,4.649,0,0,0,.954-.264.516.516,0,0,0,.315-.5c-.081-.487-.325-.457-.568-.4a1.548,1.548,0,0,1-.659.091.654.654,0,0,1-.335-.294,1.029,1.029,0,0,1-.091-.284.2.2,0,0,0-.142-.162c-.071-.01-.152.061-.172.162a.871.871,0,0,0,.051.416c.051.132-.071.2-.213.061a2.829,2.829,0,0,1-.325-.436,1.274,1.274,0,0,0-.883-.6,1.251,1.251,0,0,0-.69.122,2.921,2.921,0,0,0-.416.274,2.671,2.671,0,0,0-.467.548c-.446.68-.6.568-.649.365s-.03-.528-.061-.72l-.1-.7a2.081,2.081,0,0,1,.03-.71l.193-.812.162-.7a2.182,2.182,0,0,1,.325-.629,5.08,5.08,0,0,0,.5-.842,1.322,1.322,0,0,1,.457-.517l.152-.091a1.179,1.179,0,0,1,.67-.142l.68.071.3.041a2.422,2.422,0,0,0,.538.01,1.736,1.736,0,0,0,.558-.172,4.2,4.2,0,0,0,.974-.67,1.693,1.693,0,0,1,1.562-.335,2.577,2.577,0,0,0,.659.091c.172-.02.315-.03.315-.03l.528-.061a1.258,1.258,0,0,1,.578.071.724.724,0,0,0,.538-.041l.1-.051a1.342,1.342,0,0,1,.69-.112l.5.061a4.27,4.27,0,0,0,.72,0l.375-.041a1.054,1.054,0,0,1,.649.183c-.1-.081-.2-.152-.284-.213h.02a19.224,19.224,0,0,1,7.041,10.044,1.9,1.9,0,0,1,.041.457c-.02.172-.233.325-.386.457C86.671,87.722,86.864,87.6,86.955,87.722Z" transform="translate(-51.586 -75.078)"/>
      </g>
    </g>
  </g>
</svg>
