<svg xmlns="http://www.w3.org/2000/svg" viewBox="0 0 44.852 44.852">
  <defs>
    <style>
      .cls-1 {
        fill: rgba(213,213,213,0.58);
      }

      .cls-2, .cls-4 {
        fill: #fff;
      }

      .cls-2 {
        stroke: #fff;
        stroke-width: 0.5px;
      }

      .cls-3, .cls-4 {
        stroke: none;
      }
    </style>
  </defs>
  <g id="num" transform="translate(0)">
    <g id="bg" class="cls-1">
      <path class="cls-3" d="M 22.42578125 43.8515625 C 19.53288078308105 43.8515625 16.72704124450684 43.28520202636719 14.08620166778564 42.16823196411133 C 11.53496170043945 41.08914184570312 9.243491172790527 39.54412078857422 7.275461196899414 37.57609939575195 C 5.307441234588623 35.60807037353516 3.762421131134033 33.31660079956055 2.683331251144409 30.76536178588867 C 1.566361308097839 28.12452125549316 1.000001192092896 25.31868171691895 1.000001192092896 22.42578125 C 1.000001192092896 19.53288078308105 1.566361308097839 16.72704124450684 2.683331251144409 14.08620166778564 C 3.762421131134033 11.53496170043945 5.307441234588623 9.243491172790527 7.275461196899414 7.275461196899414 C 9.243491172790527 5.307441234588623 11.53496170043945 3.762421131134033 14.08620166778564 2.683331251144409 C 16.72704124450684 1.566361308097839 19.53288078308105 1.000001192092896 22.42578125 1.000001192092896 C 25.31868171691895 1.000001192092896 28.12452125549316 1.566361308097839 30.76536178588867 2.683331251144409 C 33.31660079956055 3.762421131134033 35.60807037353516 5.307441234588623 37.57609939575195 7.275461196899414 C 39.54412078857422 9.243491172790527 41.08914184570312 11.53496170043945 42.16823196411133 14.08620166778564 C 43.28520202636719 16.72704124450684 43.8515625 19.53288078308105 43.8515625 22.42578125 C 43.8515625 25.31868171691895 43.28520202636719 28.12452125549316 42.16823196411133 30.76536178588867 C 41.08914184570312 33.31660079956055 39.54412078857422 35.60807037353516 37.57609939575195 37.57609939575195 C 35.60807037353516 39.54412078857422 33.31660079956055 41.08914184570312 30.76536178588867 42.16823196411133 C 28.12452125549316 43.28520202636719 25.31868171691895 43.8515625 22.42578125 43.8515625 Z"/>
      <path class="cls-4" d="M 22.42578125 2 C 19.66744041442871 2 16.99266052246094 2.539779663085938 14.47576141357422 3.604339599609375 C 12.0437126159668 4.633010864257812 9.859081268310547 6.106060028076172 7.982570648193359 7.982570648193359 C 6.106060028076172 9.859081268310547 4.633010864257812 12.0437126159668 3.604339599609375 14.47576141357422 C 2.539779663085938 16.99266052246094 2 19.66744041442871 2 22.42578125 C 2 25.18412208557129 2.539779663085938 27.85890197753906 3.604339599609375 30.37580108642578 C 4.633010864257812 32.8078498840332 6.106060028076172 34.99248123168945 7.982570648193359 36.86899185180664 C 9.859081268310547 38.74550247192383 12.0437126159668 40.21855163574219 14.47576141357422 41.24722290039062 C 16.99266052246094 42.31178283691406 19.66744041442871 42.8515625 22.42578125 42.8515625 C 25.18412208557129 42.8515625 27.85890197753906 42.31178283691406 30.37580108642578 41.24722290039062 C 32.8078498840332 40.21855163574219 34.99248123168945 38.74550247192383 36.86899185180664 36.86899185180664 C 38.74550247192383 34.99248123168945 40.21855163574219 32.8078498840332 41.24722290039062 30.37580108642578 C 42.31178283691406 27.85890197753906 42.8515625 25.18412208557129 42.8515625 22.42578125 C 42.8515625 19.66744041442871 42.31178283691406 16.99266052246094 41.24722290039062 14.47576141357422 C 40.21855163574219 12.0437126159668 38.74550247192383 9.859081268310547 36.86899185180664 7.982570648193359 C 34.99248123168945 6.106060028076172 32.8078498840332 4.633010864257812 30.37580108642578 3.604339599609375 C 27.85890197753906 2.539779663085938 25.18412208557129 2 22.42578125 2 M 22.42578125 0 C 34.81120300292969 0 44.8515625 10.04035949707031 44.8515625 22.42578125 C 44.8515625 34.81120300292969 34.81120300292969 44.8515625 22.42578125 44.8515625 C 10.04035949707031 44.8515625 0 34.81120300292969 0 22.42578125 C 0 10.04035949707031 10.04035949707031 0 22.42578125 0 Z"/>
    </g>
    <path id="play-1" class="cls-2" d="M1.6,11.743l7.79-4.937L1.6,1.87ZM0,1.375A1.271,1.271,0,0,1,2.042.253L10.5,5.615A1.357,1.357,0,0,1,10.5,8L2.042,13.36A1.27,1.27,0,0,1,0,12.238V1.375Z" transform="translate(17.941 15.698)"/>
  </g>
</svg>
