<svg id="quote_before" xmlns="http://www.w3.org/2000/svg" width="22.607" height="19.835" viewBox="0 0 22.607 19.835">
  <path id="Path_1" data-name="Path 1" d="M5,23.4c0-7.236,6.681-11.645,7.719-12.2a4.691,4.691,0,0,1,1.924-.684c.415,0,.69.2.69.55a1.633,1.633,0,0,1-.69,1.032c-.959.69-3.652,4.274-3.652,7.651a2.316,2.316,0,0,0,1.032,2c.623.342,3.517.965,3.517,4.611a4.028,4.028,0,0,1-4.134,3.994C8.237,30.351,5,27.945,5,23.4Z" transform="translate(-5 -10.516)" fill="#797979"/>
  <path id="Path_2" data-name="Path 2" d="M53.014,23.4c0-7.236,6.687-11.645,7.719-12.2a4.713,4.713,0,0,1,1.93-.684c.415,0,.684.2.684.55a1.622,1.622,0,0,1-.684,1.032c-.965.69-3.651,4.274-3.651,7.651a2.316,2.316,0,0,0,1.032,2c.623.342,3.517.965,3.517,4.611a4.033,4.033,0,0,1-4.14,3.994C56.256,30.351,53.014,27.945,53.014,23.4Z" transform="translate(-40.954 -10.516)" fill="#797979"/>
</svg>
