<svg xmlns="http://www.w3.org/2000/svg" viewBox="0 0 108.598 127.987">
  <defs>
    <style>
      .cls-1 {
        fill: #3f7fc4;
      }
    </style>
  </defs>
  <g id="Group_20624" data-name="Group 20624" transform="translate(0 0.013)">
    <path id="Path_12711" data-name="Path 12711" class="cls-1" d="M55.582,102.462v49.8H3.61V84.126H43.071A34.551,34.551,0,0,1,40.528,67.8H7.384A7.405,7.405,0,0,0,0,75.184v85.4a7.405,7.405,0,0,0,7.384,7.384H51.808a7.405,7.405,0,0,0,7.384-7.384V102.134c-.41-.246-.82-.451-1.231-.7Zm-31.831-28.3H35.441a1.764,1.764,0,0,1,0,3.528H23.751a1.751,1.751,0,0,1-1.764-1.764A1.8,1.8,0,0,1,23.751,74.158Zm5.825,88.685a3.035,3.035,0,1,1,3.035-3.035A3.029,3.029,0,0,1,29.575,162.843Z" transform="translate(0 -39.996)"/>
    <path id="Path_12712" data-name="Path 12712" class="cls-1" d="M169.681,19.272A32.918,32.918,0,0,0,127.636,2.33a30.626,30.626,0,0,0-16.613,41.184,30.052,30.052,0,0,0,2.912,5.127,1.336,1.336,0,0,1,.082,1.19l-4.8,10.788a1.112,1.112,0,0,0,.451,1.518.749.749,0,0,0,.656-.041l11.4-5a.922.922,0,0,1,.656-.041c.041.041.082.041.164.082a32.977,32.977,0,0,0,30.519,3.323,30.626,30.626,0,0,0,16.613-41.184ZM165.5,41.546a25.369,25.369,0,0,1-14.316,14.193,28.069,28.069,0,0,1-25.843-2.83,5.352,5.352,0,0,0-1.067-.574,5.876,5.876,0,0,0-4.635.082l-1.6.7.533-1.231a6.326,6.326,0,0,0-.533-6.153,26.252,26.252,0,0,1-2.42-4.307A25.537,25.537,0,0,1,129.482,7.048a27.9,27.9,0,0,1,35.564,14.316A25.573,25.573,0,0,1,165.5,41.546Z" transform="translate(-63.85 0)"/>
    <path id="Path_12713" data-name="Path 12713" class="cls-1" d="M146.639,64.807a5.01,5.01,0,0,0-1.436-.82,13.537,13.537,0,0,0-1.395-.451,5.808,5.808,0,0,1-.9-.287,4,4,0,0,1-.7-.287c-.041-.041-.123-.082-.164-.123a1.271,1.271,0,0,1-.41-1.395c.164-.492.574-.738,1.272-.738a9.3,9.3,0,0,1,1.723.164,5.809,5.809,0,0,1,.82.164,1.31,1.31,0,0,0,1.559-1.067,1.771,1.771,0,0,0-.9-2.133,3.405,3.405,0,0,0-.861-.246,10.944,10.944,0,0,0-2.215-.287,6.985,6.985,0,0,0-2.42.369,4.151,4.151,0,0,0-1.641,1.025,4.3,4.3,0,0,0-.943,1.559,6.182,6.182,0,0,0-.287,1.969,4.419,4.419,0,0,0,.41,2.092,3.456,3.456,0,0,0,1.108,1.313,5.871,5.871,0,0,0,1.6.82c.615.205,1.272.41,1.928.615a4.647,4.647,0,0,1,1.19.533,1.084,1.084,0,0,1,.41.943,1.281,1.281,0,0,1-.41,1.067,2.056,2.056,0,0,1-1.272.328,5.262,5.262,0,0,1-.738-.041,5.321,5.321,0,0,1-1.067-.123c-.41-.082-.82-.164-1.313-.287a2.613,2.613,0,0,0-.287-.082,1.33,1.33,0,0,0-1.6,1.108v.041a1.744,1.744,0,0,0,.861,2.092h0c.451.164.9.287,1.354.41.451.082.861.164,1.272.205s.779.082,1.108.082a10.073,10.073,0,0,0,2.666-.328,5.037,5.037,0,0,0,1.8-.984,3.568,3.568,0,0,0,1.026-1.518,5.757,5.757,0,0,0,.328-1.928,5.519,5.519,0,0,0-.451-2.338A3.085,3.085,0,0,0,146.639,64.807Z" transform="translate(-81.171 -33.803)"/>
    <path id="Path_12714" data-name="Path 12714" class="cls-1" d="M181.085,57.5h-1.518a1.757,1.757,0,0,0-1.6,1.395L176.655,63l-1.19,3.938H175.3l-1.026-3.692-1.313-4.307a1.806,1.806,0,0,0-1.641-1.436h-1.6A2.017,2.017,0,0,0,168,59.715V71.324a1.778,1.778,0,1,0,3.446,0V64.1h.082l1.025,3.487.9,2.912A1.763,1.763,0,0,0,175.1,71.9h.492a1.762,1.762,0,0,0,1.6-1.354l.9-2.707,1.149-3.692h.082v7.178a2.017,2.017,0,0,0,1.723,2.215h.041a2.017,2.017,0,0,0,1.723-2.215V59.715A1.961,1.961,0,0,0,181.085,57.5Z" transform="translate(-99.086 -33.921)"/>
    <path id="Path_12715" data-name="Path 12715" class="cls-1" d="M218.439,64.807a5.01,5.01,0,0,0-1.436-.82,13.536,13.536,0,0,0-1.395-.451,5.809,5.809,0,0,1-.9-.287,4,4,0,0,1-.7-.287c-.041-.041-.123-.082-.164-.123a1.271,1.271,0,0,1-.41-1.395c.164-.492.574-.738,1.272-.738a9.3,9.3,0,0,1,1.723.164,5.808,5.808,0,0,1,.82.164,1.31,1.31,0,0,0,1.559-1.067,1.771,1.771,0,0,0-.9-2.133,3.405,3.405,0,0,0-.861-.246,10.944,10.944,0,0,0-2.215-.287,6.985,6.985,0,0,0-2.42.369,4.151,4.151,0,0,0-1.641,1.025,4.3,4.3,0,0,0-.943,1.559,6.182,6.182,0,0,0-.287,1.969,4.419,4.419,0,0,0,.41,2.092,3.456,3.456,0,0,0,1.108,1.313,5.871,5.871,0,0,0,1.6.82c.615.205,1.272.41,1.928.615a4.647,4.647,0,0,1,1.19.533,1.084,1.084,0,0,1,.41.943,1.281,1.281,0,0,1-.41,1.067,2.056,2.056,0,0,1-1.272.328,5.262,5.262,0,0,1-.738-.041,5.321,5.321,0,0,1-1.067-.123c-.41-.082-.82-.164-1.313-.287a2.613,2.613,0,0,0-.287-.082,1.33,1.33,0,0,0-1.6,1.108v.041a1.744,1.744,0,0,0,.861,2.092h0c.451.164.9.287,1.354.41.451.082.861.164,1.272.205s.779.082,1.108.082a10.073,10.073,0,0,0,2.666-.328,5.037,5.037,0,0,0,1.8-.984,3.568,3.568,0,0,0,1.025-1.518,5.757,5.757,0,0,0,.328-1.928,5.519,5.519,0,0,0-.451-2.338A3.085,3.085,0,0,0,218.439,64.807Z" transform="translate(-123.519 -33.803)"/>
  </g>
</svg>
